<?xml version="1.0" encoding="UTF-8" standalone="no"?>
<!DOCTYPE svg PUBLIC "-//W3C//DTD SVG 1.1//EN"
 "http://www.w3.org/Graphics/SVG/1.1/DTD/svg11.dtd">
<!-- Generated by graphviz version 2.40.1 (20161225.0304)
 -->
<!-- Title: G Pages: 1 -->
<svg width="562pt" height="332pt"
 viewBox="0.00 0.00 562.00 332.00" xmlns="http://www.w3.org/2000/svg" xmlns:xlink="http://www.w3.org/1999/xlink">
<g id="graph0" class="graph" transform="scale(1 1) rotate(0) translate(4 328)">
<title>G</title>
<polygon fill="#ffffff" stroke="transparent" points="-4,4 -4,-328 558,-328 558,4 -4,4"/>
<!-- 0 -->
<g id="node1" class="node">
<title>0</title>
<polygon fill="none" stroke="#000000" points="422,-324 352,-324 352,-288 422,-288 422,-324"/>
<text text-anchor="middle" x="387" y="-302.3" font-family="Times,serif" font-size="14.00" fill="#000000">fib(5) = 5</text>
</g>
<!-- 1 -->
<g id="node2" class="node">
<title>1</title>
<polygon fill="none" stroke="#000000" points="334,-252 264,-252 264,-216 334,-216 334,-252"/>
<text text-anchor="middle" x="299" y="-230.3" font-family="Times,serif" font-size="14.00" fill="#000000">fib(4) = 3</text>
</g>
<!-- 0&#45;&gt;1 -->
<g id="edge1" class="edge">
<title>0&#45;&gt;1</title>
<path fill="none" stroke="#000000" d="M364.7939,-287.8314C353.955,-278.9632 340.7556,-268.1637 329.0322,-258.5718"/>
<polygon fill="#000000" stroke="#000000" points="331.155,-255.7864 321.199,-252.1628 326.7223,-261.2041 331.155,-255.7864"/>
</g>
<!-- 10 -->
<g id="node11" class="node">
<title>10</title>
<polygon fill="none" stroke="#000000" points="466,-252 396,-252 396,-216 466,-216 466,-252"/>
<text text-anchor="middle" x="431" y="-230.3" font-family="Times,serif" font-size="14.00" fill="#000000">fib(3) = 2</text>
</g>
<!-- 0&#45;&gt;10 -->
<g id="edge10" class="edge">
<title>0&#45;&gt;10</title>
<path fill="none" stroke="#000000" d="M398.1031,-287.8314C403.0674,-279.7079 409.0222,-269.9637 414.4928,-261.0118"/>
<polygon fill="#000000" stroke="#000000" points="417.5194,-262.7712 419.7474,-252.4133 411.5464,-259.121 417.5194,-262.7712"/>
</g>
<!-- 2 -->
<g id="node3" class="node">
<title>2</title>
<polygon fill="none" stroke="#000000" points="202,-180 132,-180 132,-144 202,-144 202,-180"/>
<text text-anchor="middle" x="167" y="-158.3" font-family="Times,serif" font-size="14.00" fill="#000000">fib(3) = 2</text>
</g>
<!-- 1&#45;&gt;2 -->
<g id="edge2" class="edge">
<title>1&#45;&gt;2</title>
<path fill="none" stroke="#000000" d="M265.6908,-215.8314C248.5727,-206.4942 227.5294,-195.016 209.2778,-185.0606"/>
<polygon fill="#000000" stroke="#000000" points="210.7535,-181.8788 200.2985,-180.1628 207.4015,-188.024 210.7535,-181.8788"/>
</g>
<!-- 7 -->
<g id="node8" class="node">
<title>7</title>
<polygon fill="none" stroke="#000000" points="334,-180 264,-180 264,-144 334,-144 334,-180"/>
<text text-anchor="middle" x="299" y="-158.3" font-family="Times,serif" font-size="14.00" fill="#000000">fib(2) = 1</text>
</g>
<!-- 1&#45;&gt;7 -->
<g id="edge7" class="edge">
<title>1&#45;&gt;7</title>
<path fill="none" stroke="#000000" d="M299,-215.8314C299,-208.131 299,-198.9743 299,-190.4166"/>
<polygon fill="#000000" stroke="#000000" points="302.5001,-190.4132 299,-180.4133 295.5001,-190.4133 302.5001,-190.4132"/>
</g>
<!-- 3 -->
<g id="node4" class="node">
<title>3</title>
<polygon fill="none" stroke="#000000" points="114,-108 44,-108 44,-72 114,-72 114,-108"/>
<text text-anchor="middle" x="79" y="-86.3" font-family="Times,serif" font-size="14.00" fill="#000000">fib(2) = 1</text>
</g>
<!-- 2&#45;&gt;3 -->
<g id="edge3" class="edge">
<title>2&#45;&gt;3</title>
<path fill="none" stroke="#000000" d="M144.7939,-143.8314C133.955,-134.9632 120.7556,-124.1637 109.0322,-114.5718"/>
<polygon fill="#000000" stroke="#000000" points="111.155,-111.7864 101.199,-108.1628 106.7223,-117.2041 111.155,-111.7864"/>
</g>
<!-- 6 -->
<g id="node7" class="node">
<title>6</title>
<polygon fill="none" stroke="#000000" points="202,-108 132,-108 132,-72 202,-72 202,-108"/>
<text text-anchor="middle" x="167" y="-86.3" font-family="Times,serif" font-size="14.00" fill="#000000">fib(1) = 1</text>
</g>
<!-- 2&#45;&gt;6 -->
<g id="edge6" class="edge">
<title>2&#45;&gt;6</title>
<path fill="none" stroke="#000000" d="M167,-143.8314C167,-136.131 167,-126.9743 167,-118.4166"/>
<polygon fill="#000000" stroke="#000000" points="170.5001,-118.4132 167,-108.4133 163.5001,-118.4133 170.5001,-118.4132"/>
</g>
<!-- 4 -->
<g id="node5" class="node">
<title>4</title>
<polygon fill="none" stroke="#000000" points="70,-36 0,-36 0,0 70,0 70,-36"/>
<text text-anchor="middle" x="35" y="-14.3" font-family="Times,serif" font-size="14.00" fill="#000000">fib(1) = 1</text>
</g>
<!-- 3&#45;&gt;4 -->
<g id="edge4" class="edge">
<title>3&#45;&gt;4</title>
<path fill="none" stroke="#000000" d="M67.8969,-71.8314C62.9326,-63.7079 56.9778,-53.9637 51.5072,-45.0118"/>
<polygon fill="#000000" stroke="#000000" points="54.4536,-43.121 46.2526,-36.4133 48.4806,-46.7712 54.4536,-43.121"/>
</g>
<!-- 5 -->
<g id="node6" class="node">
<title>5</title>
<polygon fill="none" stroke="#000000" points="158,-36 88,-36 88,0 158,0 158,-36"/>
<text text-anchor="middle" x="123" y="-14.3" font-family="Times,serif" font-size="14.00" fill="#000000">fib(0) = 0</text>
</g>
<!-- 3&#45;&gt;5 -->
<g id="edge5" class="edge">
<title>3&#45;&gt;5</title>
<path fill="none" stroke="#000000" d="M90.1031,-71.8314C95.0674,-63.7079 101.0222,-53.9637 106.4928,-45.0118"/>
<polygon fill="#000000" stroke="#000000" points="109.5194,-46.7712 111.7474,-36.4133 103.5464,-43.121 109.5194,-46.7712"/>
</g>
<!-- 8 -->
<g id="node9" class="node">
<title>8</title>
<polygon fill="none" stroke="#000000" points="290,-108 220,-108 220,-72 290,-72 290,-108"/>
<text text-anchor="middle" x="255" y="-86.3" font-family="Times,serif" font-size="14.00" fill="#000000">fib(1) = 1</text>
</g>
<!-- 7&#45;&gt;8 -->
<g id="edge8" class="edge">
<title>7&#45;&gt;8</title>
<path fill="none" stroke="#000000" d="M287.8969,-143.8314C282.9326,-135.7079 276.9778,-125.9637 271.5072,-117.0118"/>
<polygon fill="#000000" stroke="#000000" points="274.4536,-115.121 266.2526,-108.4133 268.4806,-118.7712 274.4536,-115.121"/>
</g>
<!-- 9 -->
<g id="node10" class="node">
<title>9</title>
<polygon fill="none" stroke="#000000" points="378,-108 308,-108 308,-72 378,-72 378,-108"/>
<text text-anchor="middle" x="343" y="-86.3" font-family="Times,serif" font-size="14.00" fill="#000000">fib(0) = 0</text>
</g>
<!-- 7&#45;&gt;9 -->
<g id="edge9" class="edge">
<title>7&#45;&gt;9</title>
<path fill="none" stroke="#000000" d="M310.1031,-143.8314C315.0674,-135.7079 321.0222,-125.9637 326.4928,-117.0118"/>
<polygon fill="#000000" stroke="#000000" points="329.5194,-118.7712 331.7474,-108.4133 323.5464,-115.121 329.5194,-118.7712"/>
</g>
<!-- 11 -->
<g id="node12" class="node">
<title>11</title>
<polygon fill="none" stroke="#000000" points="466,-180 396,-180 396,-144 466,-144 466,-180"/>
<text text-anchor="middle" x="431" y="-158.3" font-family="Times,serif" font-size="14.00" fill="#000000">fib(2) = 1</text>
</g>
<!-- 10&#45;&gt;11 -->
<g id="edge11" class="edge">
<title>10&#45;&gt;11</title>
<path fill="none" stroke="#000000" d="M431,-215.8314C431,-208.131 431,-198.9743 431,-190.4166"/>
<polygon fill="#000000" stroke="#000000" points="434.5001,-190.4132 431,-180.4133 427.5001,-190.4133 434.5001,-190.4132"/>
</g>
<!-- 14 -->
<g id="node15" class="node">
<title>14</title>
<polygon fill="none" stroke="#000000" points="554,-180 484,-180 484,-144 554,-144 554,-180"/>
<text text-anchor="middle" x="519" y="-158.3" font-family="Times,serif" font-size="14.00" fill="#000000">fib(1) = 1</text>
</g>
<!-- 10&#45;&gt;14 -->
<g id="edge14" class="edge">
<title>10&#45;&gt;14</title>
<path fill="none" stroke="#000000" d="M453.2061,-215.8314C464.045,-206.9632 477.2444,-196.1637 488.9678,-186.5718"/>
<polygon fill="#000000" stroke="#000000" points="491.2777,-189.2041 496.801,-180.1628 486.845,-183.7864 491.2777,-189.2041"/>
</g>
<!-- 12 -->
<g id="node13" class="node">
<title>12</title>
<polygon fill="none" stroke="#000000" points="466,-108 396,-108 396,-72 466,-72 466,-108"/>
<text text-anchor="middle" x="431" y="-86.3" font-family="Times,serif" font-size="14.00" fill="#000000">fib(1) = 1</text>
</g>
<!-- 11&#45;&gt;12 -->
<g id="edge12" class="edge">
<title>11&#45;&gt;12</title>
<path fill="none" stroke="#000000" d="M431,-143.8314C431,-136.131 431,-126.9743 431,-118.4166"/>
<polygon fill="#000000" stroke="#000000" points="434.5001,-118.4132 431,-108.4133 427.5001,-118.4133 434.5001,-118.4132"/>
</g>
<!-- 13 -->
<g id="node14" class="node">
<title>13</title>
<polygon fill="none" stroke="#000000" points="554,-108 484,-108 484,-72 554,-72 554,-108"/>
<text text-anchor="middle" x="519" y="-86.3" font-family="Times,serif" font-size="14.00" fill="#000000">fib(0) = 0</text>
</g>
<!-- 11&#45;&gt;13 -->
<g id="edge13" class="edge">
<title>11&#45;&gt;13</title>
<path fill="none" stroke="#000000" d="M453.2061,-143.8314C464.045,-134.9632 477.2444,-124.1637 488.9678,-114.5718"/>
<polygon fill="#000000" stroke="#000000" points="491.2777,-117.2041 496.801,-108.1628 486.845,-111.7864 491.2777,-117.2041"/>
</g>
</g>
</svg>
