<?xml version="1.0" encoding="UTF-8" standalone="no"?>
<!DOCTYPE svg PUBLIC "-//W3C//DTD SVG 1.1//EN"
 "http://www.w3.org/Graphics/SVG/1.1/DTD/svg11.dtd">
<!-- Generated by graphviz version 2.40.1 (20161225.0304)
 -->
<!-- Title: G Pages: 1 -->
<svg width="263pt" height="95pt"
 viewBox="7.20 7.20 256.19 87.89" xmlns="http://www.w3.org/2000/svg" xmlns:xlink="http://www.w3.org/1999/xlink">
<g id="graph0" class="graph" transform="scale(1 1) rotate(0) translate(11.2 83.8889)">
<title>G</title>
<polygon fill="#ffffff" stroke="transparent" points="-4,4 -4,-76.6889 244.9896,-76.6889 244.9896,4 -4,4"/>
<!-- start -->
<g id="node1" class="node">
<title>start</title>
</g>
<!-- q0 -->
<g id="node2" class="node">
<title>q0</title>
<ellipse fill="none" stroke="#000000" stroke-width="2" cx="57.4983" cy="-20.1906" rx="19.4965" ry="19.4965"/>
<text text-anchor="middle" x="57.4983" y="-16.4906" font-family="Times,serif" font-size="14.00" fill="#000000">q0</text>
</g>
<!-- start&#45;&gt;q0 -->
<g id="edge7" class="edge">
<title>start&#45;&gt;q0</title>
<path fill="none" stroke="#000000" stroke-dasharray="5,2" d="M1.1401,-20.1906C3.9684,-20.1906 15.7387,-20.1906 27.7966,-20.1906"/>
<polygon fill="#000000" stroke="#000000" points="27.8029,-23.6907 37.8029,-20.1906 27.8029,-16.6907 27.8029,-23.6907"/>
</g>
<!-- q0&#45;&gt;q0 -->
<g id="edge1" class="edge">
<title>q0&#45;&gt;q0</title>
<path fill="none" stroke="#000000" d="M51.0268,-38.7124C49.927,-48.6423 52.0842,-57.6889 57.4983,-57.6889 60.8821,-57.6889 62.9936,-54.1551 63.833,-49.0804"/>
<polygon fill="#000000" stroke="#000000" points="67.3374,-48.7577 63.9698,-38.7124 60.338,-48.6653 67.3374,-48.7577"/>
<text text-anchor="middle" x="57.4983" y="-61.4889" font-family="Times,serif" font-size="14.00" fill="#000000">0</text>
</g>
<!-- q1 -->
<g id="node3" class="node">
<title>q1</title>
<ellipse fill="none" stroke="#000000" cx="139.4948" cy="-20.1906" rx="19.4965" ry="19.4965"/>
<text text-anchor="middle" x="139.4948" y="-16.4906" font-family="Times,serif" font-size="14.00" fill="#000000">q1</text>
</g>
<!-- q0&#45;&gt;q1 -->
<g id="edge2" class="edge">
<title>q0&#45;&gt;q1</title>
<path fill="none" stroke="#000000" d="M77.3473,-20.1906C87.0163,-20.1906 98.8463,-20.1906 109.5804,-20.1906"/>
<polygon fill="#000000" stroke="#000000" points="109.8286,-23.6907 119.8285,-20.1906 109.8285,-16.6907 109.8286,-23.6907"/>
<text text-anchor="middle" x="98.4965" y="-23.9906" font-family="Times,serif" font-size="14.00" fill="#000000">1</text>
</g>
<!-- q1&#45;&gt;q0 -->
<g id="edge4" class="edge">
<title>q1&#45;&gt;q0</title>
<path fill="none" stroke="#000000" d="M122.972,-9.7136C116.6605,-6.2878 109.2369,-2.9202 101.9965,-1.1906 95.4552,.3721 88.6531,-.9011 82.3931,-3.3891"/>
<polygon fill="#000000" stroke="#000000" points="80.471,-.4384 73.1176,-8.0659 83.6226,-6.6889 80.471,-.4384"/>
<text text-anchor="middle" x="98.4965" y="-4.9906" font-family="Times,serif" font-size="14.00" fill="#000000">1</text>
</g>
<!-- q2 -->
<g id="node4" class="node">
<title>q2</title>
<ellipse fill="none" stroke="#000000" cx="221.4913" cy="-20.1906" rx="19.4965" ry="19.4965"/>
<text text-anchor="middle" x="221.4913" y="-16.4906" font-family="Times,serif" font-size="14.00" fill="#000000">q2</text>
</g>
<!-- q1&#45;&gt;q2 -->
<g id="edge3" class="edge">
<title>q1&#45;&gt;q2</title>
<path fill="none" stroke="#000000" d="M159.3439,-20.1906C169.0128,-20.1906 180.8429,-20.1906 191.5769,-20.1906"/>
<polygon fill="#000000" stroke="#000000" points="191.8251,-23.6907 201.8251,-20.1906 191.825,-16.6907 191.8251,-23.6907"/>
<text text-anchor="middle" x="180.4931" y="-23.9906" font-family="Times,serif" font-size="14.00" fill="#000000">0</text>
</g>
<!-- q2&#45;&gt;q1 -->
<g id="edge5" class="edge">
<title>q2&#45;&gt;q1</title>
<path fill="none" stroke="#000000" d="M205.872,-8.0659C197.5341,-3.0129 186.9608,1.1906 176.9931,-1.1906 173.0335,-2.1365 169.0191,-3.5722 165.1618,-5.2395"/>
<polygon fill="#000000" stroke="#000000" points="163.4618,-2.1747 156.0176,-9.7136 166.5384,-8.4624 163.4618,-2.1747"/>
<text text-anchor="middle" x="180.4931" y="-4.9906" font-family="Times,serif" font-size="14.00" fill="#000000">0</text>
</g>
<!-- q2&#45;&gt;q2 -->
<g id="edge6" class="edge">
<title>q2&#45;&gt;q2</title>
<path fill="none" stroke="#000000" d="M214.3008,-38.7124C213.0789,-48.6423 215.4757,-57.6889 221.4913,-57.6889 225.2511,-57.6889 227.5973,-54.1551 228.5299,-49.0804"/>
<polygon fill="#000000" stroke="#000000" points="232.0348,-48.7626 228.6819,-38.7124 225.0356,-48.6599 232.0348,-48.7626"/>
<text text-anchor="middle" x="221.4913" y="-61.4889" font-family="Times,serif" font-size="14.00" fill="#000000">1</text>
</g>
</g>
</svg>
