<svg height="188pt" viewBox="0.00 0.00 89.00 188.00" width="89pt" xmlns="http://www.w3.org/2000/svg" xmlns:xlink="http://www.w3.org/1999/xlink">
<g class="graph" id="graph0" transform="scale(1 1) rotate(0) translate(4 184)">
<title>G</title>
<polygon fill="#ffffff" points="-4,4 -4,-184 85,-184 85,4 -4,4" stroke="transparent"/>
<!-- A -->
<g class="node" id="node1">
<title>A</title>
<ellipse cx="54" cy="-162" fill="none" rx="27" ry="18" stroke="#000000"/>
<text fill="#000000" font-family="Times,serif" font-size="14.00" text-anchor="middle" x="54" y="-158.3">A</text>
</g>
<!-- B -->
<g class="node" id="node2">
<title>B</title>
<ellipse cx="27" cy="-90" fill="none" rx="27" ry="18" stroke="#000000"/>
<text fill="#000000" font-family="Times,serif" font-size="14.00" text-anchor="middle" x="27" y="-86.3">B</text>
</g>
<!-- A&#45;&gt;B -->
<g class="edge" id="edge1">
<title>A-&gt;B</title>
<path d="M47.3258,-144.2022C44.2524,-136.0064 40.5384,-126.1024 37.1305,-117.0145" fill="none" stroke="#000000"/>
<polygon fill="#000000" points="40.3858,-115.7274 33.5974,-107.593 33.8315,-118.1853 40.3858,-115.7274" stroke="#000000"/>
</g>
<!-- C -->
<g class="node" id="node3">
<title>C</title>
<ellipse cx="54" cy="-18" fill="none" rx="27" ry="18" stroke="#000000"/>
<text fill="#000000" font-family="Times,serif" font-size="14.00" text-anchor="middle" x="54" y="-14.3">C</text>
</g>
<!-- B&#45;&gt;C -->
<g class="edge" id="edge2">
<title>B-&gt;C</title>
<path d="M33.6742,-72.2022C36.7476,-64.0064 40.4616,-54.1024 43.8695,-45.0145" fill="none" stroke="#000000"/>
<polygon fill="#000000" points="47.1685,-46.1853 47.4026,-35.593 40.6142,-43.7274 47.1685,-46.1853" stroke="#000000"/>
</g>
<!-- C&#45;&gt;A -->
<g class="edge" id="edge3">
<title>C-&gt;A</title>
<path d="M57.7474,-35.9069C59.7466,-46.3759 61.9966,-59.8759 63,-72 64.3197,-87.9455 64.3197,-92.0545 63,-108 62.2945,-116.5247 60.9727,-125.7297 59.5551,-134.083" fill="none" stroke="#000000"/>
<polygon fill="#000000" points="56.0803,-133.6302 57.7474,-144.0931 62.9689,-134.8742 56.0803,-133.6302" stroke="#000000"/>
</g>
</g>
</svg>