<?xml version="1.0" encoding="UTF-8" standalone="no"?>
<!DOCTYPE svg PUBLIC "-//W3C//DTD SVG 1.1//EN"
 "http://www.w3.org/Graphics/SVG/1.1/DTD/svg11.dtd">
<!-- Generated by graphviz version 2.40.1 (20161225.0304)
 -->
<!-- Title: G Pages: 1 -->
<svg width="917pt" height="260pt"
 viewBox="0.00 0.00 917.00 260.00" xmlns="http://www.w3.org/2000/svg" xmlns:xlink="http://www.w3.org/1999/xlink">
<g id="graph0" class="graph" transform="scale(1 1) rotate(0) translate(4 256)">
<title>G</title>
<polygon fill="#ffffff" stroke="transparent" points="-4,4 -4,-256 913,-256 913,4 -4,4"/>
<!-- 0 -->
<g id="node1" class="node">
<title>0</title>
<polygon fill="none" stroke="#000000" points="498.5,-252 193.5,-252 193.5,-216 498.5,-216 498.5,-252"/>
<text text-anchor="middle" x="346" y="-230.3" font-family="Times,serif" font-size="14.00" fill="#000000">merge_sort([5, 4, 3, 7, 2, 8, 1]) = [1, 2, 3, 4, 5, 7, 8]</text>
</g>
<!-- 1 -->
<g id="node2" class="node">
<title>1</title>
<polygon fill="none" stroke="#000000" points="329.5,-180 138.5,-180 138.5,-144 329.5,-144 329.5,-180"/>
<text text-anchor="middle" x="234" y="-158.3" font-family="Times,serif" font-size="14.00" fill="#000000">merge_sort([5, 4, 3]) = [3, 4, 5]</text>
</g>
<!-- 0&#45;&gt;1 -->
<g id="edge1" class="edge">
<title>0&#45;&gt;1</title>
<path fill="none" stroke="#000000" d="M317.7377,-215.8314C303.5448,-206.7074 286.1718,-195.539 270.9364,-185.7449"/>
<polygon fill="#000000" stroke="#000000" points="272.5578,-182.6263 262.2533,-180.1628 268.7724,-188.5146 272.5578,-182.6263"/>
</g>
<!-- 6 -->
<g id="node7" class="node">
<title>6</title>
<polygon fill="none" stroke="#000000" points="593,-180 373,-180 373,-144 593,-144 593,-180"/>
<text text-anchor="middle" x="483" y="-158.3" font-family="Times,serif" font-size="14.00" fill="#000000">merge_sort([7, 2, 8, 1]) = [1, 2, 7, 8]</text>
</g>
<!-- 0&#45;&gt;6 -->
<g id="edge6" class="edge">
<title>0&#45;&gt;6</title>
<path fill="none" stroke="#000000" d="M380.5709,-215.8314C398.4185,-206.4516 420.3774,-194.9112 439.38,-184.9244"/>
<polygon fill="#000000" stroke="#000000" points="441.2164,-187.9132 448.4402,-180.1628 437.9599,-181.7168 441.2164,-187.9132"/>
</g>
<!-- 2 -->
<g id="node3" class="node">
<title>2</title>
<polygon fill="none" stroke="#000000" points="134,-108 0,-108 0,-72 134,-72 134,-108"/>
<text text-anchor="middle" x="67" y="-86.3" font-family="Times,serif" font-size="14.00" fill="#000000">merge_sort([5]) = [5]</text>
</g>
<!-- 1&#45;&gt;2 -->
<g id="edge2" class="edge">
<title>1&#45;&gt;2</title>
<path fill="none" stroke="#000000" d="M191.8588,-143.8314C169.5236,-134.2018 141.9064,-122.295 118.329,-112.1299"/>
<polygon fill="#000000" stroke="#000000" points="119.4067,-108.7831 108.8381,-108.038 116.6353,-115.2112 119.4067,-108.7831"/>
</g>
<!-- 3 -->
<g id="node4" class="node">
<title>3</title>
<polygon fill="none" stroke="#000000" points="315.5,-108 152.5,-108 152.5,-72 315.5,-72 315.5,-108"/>
<text text-anchor="middle" x="234" y="-86.3" font-family="Times,serif" font-size="14.00" fill="#000000">merge_sort([4, 3]) = [3, 4]</text>
</g>
<!-- 1&#45;&gt;3 -->
<g id="edge3" class="edge">
<title>1&#45;&gt;3</title>
<path fill="none" stroke="#000000" d="M234,-143.8314C234,-136.131 234,-126.9743 234,-118.4166"/>
<polygon fill="#000000" stroke="#000000" points="237.5001,-118.4132 234,-108.4133 230.5001,-118.4133 237.5001,-118.4132"/>
</g>
<!-- 4 -->
<g id="node5" class="node">
<title>4</title>
<polygon fill="none" stroke="#000000" points="149,-36 15,-36 15,0 149,0 149,-36"/>
<text text-anchor="middle" x="82" y="-14.3" font-family="Times,serif" font-size="14.00" fill="#000000">merge_sort([4]) = [4]</text>
</g>
<!-- 3&#45;&gt;4 -->
<g id="edge4" class="edge">
<title>3&#45;&gt;4</title>
<path fill="none" stroke="#000000" d="M195.644,-71.8314C175.4956,-62.2874 150.6248,-50.5065 129.2917,-40.4013"/>
<polygon fill="#000000" stroke="#000000" points="130.6159,-37.1558 120.0802,-36.038 127.6193,-43.482 130.6159,-37.1558"/>
</g>
<!-- 5 -->
<g id="node6" class="node">
<title>5</title>
<polygon fill="none" stroke="#000000" points="301,-36 167,-36 167,0 301,0 301,-36"/>
<text text-anchor="middle" x="234" y="-14.3" font-family="Times,serif" font-size="14.00" fill="#000000">merge_sort([3]) = [3]</text>
</g>
<!-- 3&#45;&gt;5 -->
<g id="edge5" class="edge">
<title>3&#45;&gt;5</title>
<path fill="none" stroke="#000000" d="M234,-71.8314C234,-64.131 234,-54.9743 234,-46.4166"/>
<polygon fill="#000000" stroke="#000000" points="237.5001,-46.4132 234,-36.4133 230.5001,-46.4133 237.5001,-46.4132"/>
</g>
<!-- 7 -->
<g id="node8" class="node">
<title>7</title>
<polygon fill="none" stroke="#000000" points="564.5,-108 401.5,-108 401.5,-72 564.5,-72 564.5,-108"/>
<text text-anchor="middle" x="483" y="-86.3" font-family="Times,serif" font-size="14.00" fill="#000000">merge_sort([7, 2]) = [2, 7]</text>
</g>
<!-- 6&#45;&gt;7 -->
<g id="edge7" class="edge">
<title>6&#45;&gt;7</title>
<path fill="none" stroke="#000000" d="M483,-143.8314C483,-136.131 483,-126.9743 483,-118.4166"/>
<polygon fill="#000000" stroke="#000000" points="486.5001,-118.4132 483,-108.4133 479.5001,-118.4133 486.5001,-118.4132"/>
</g>
<!-- 10 -->
<g id="node11" class="node">
<title>10</title>
<polygon fill="none" stroke="#000000" points="771.5,-108 608.5,-108 608.5,-72 771.5,-72 771.5,-108"/>
<text text-anchor="middle" x="690" y="-86.3" font-family="Times,serif" font-size="14.00" fill="#000000">merge_sort([8, 1]) = [1, 8]</text>
</g>
<!-- 6&#45;&gt;10 -->
<g id="edge10" class="edge">
<title>6&#45;&gt;10</title>
<path fill="none" stroke="#000000" d="M534.9677,-143.9243C563.3888,-134.0387 598.7702,-121.7321 628.5536,-111.3726"/>
<polygon fill="#000000" stroke="#000000" points="629.7158,-114.6742 638.011,-108.0831 627.4161,-108.0627 629.7158,-114.6742"/>
</g>
<!-- 8 -->
<g id="node9" class="node">
<title>8</title>
<polygon fill="none" stroke="#000000" points="453,-36 319,-36 319,0 453,0 453,-36"/>
<text text-anchor="middle" x="386" y="-14.3" font-family="Times,serif" font-size="14.00" fill="#000000">merge_sort([7]) = [7]</text>
</g>
<!-- 7&#45;&gt;8 -->
<g id="edge8" class="edge">
<title>7&#45;&gt;8</title>
<path fill="none" stroke="#000000" d="M458.5228,-71.8314C446.4605,-62.8779 431.746,-51.9558 418.7314,-42.2955"/>
<polygon fill="#000000" stroke="#000000" points="420.5852,-39.3127 410.4694,-36.1628 416.413,-44.9335 420.5852,-39.3127"/>
</g>
<!-- 9 -->
<g id="node10" class="node">
<title>9</title>
<polygon fill="none" stroke="#000000" points="605,-36 471,-36 471,0 605,0 605,-36"/>
<text text-anchor="middle" x="538" y="-14.3" font-family="Times,serif" font-size="14.00" fill="#000000">merge_sort([2]) = [2]</text>
</g>
<!-- 7&#45;&gt;9 -->
<g id="edge9" class="edge">
<title>7&#45;&gt;9</title>
<path fill="none" stroke="#000000" d="M496.8788,-71.8314C503.2136,-63.5386 510.8384,-53.557 517.7926,-44.4533"/>
<polygon fill="#000000" stroke="#000000" points="520.6452,-46.4847 523.9343,-36.4133 515.0825,-42.2353 520.6452,-46.4847"/>
</g>
<!-- 11 -->
<g id="node12" class="node">
<title>11</title>
<polygon fill="none" stroke="#000000" points="757,-36 623,-36 623,0 757,0 757,-36"/>
<text text-anchor="middle" x="690" y="-14.3" font-family="Times,serif" font-size="14.00" fill="#000000">merge_sort([8]) = [8]</text>
</g>
<!-- 10&#45;&gt;11 -->
<g id="edge11" class="edge">
<title>10&#45;&gt;11</title>
<path fill="none" stroke="#000000" d="M690,-71.8314C690,-64.131 690,-54.9743 690,-46.4166"/>
<polygon fill="#000000" stroke="#000000" points="693.5001,-46.4132 690,-36.4133 686.5001,-46.4133 693.5001,-46.4132"/>
</g>
<!-- 12 -->
<g id="node13" class="node">
<title>12</title>
<polygon fill="none" stroke="#000000" points="909,-36 775,-36 775,0 909,0 909,-36"/>
<text text-anchor="middle" x="842" y="-14.3" font-family="Times,serif" font-size="14.00" fill="#000000">merge_sort([1]) = [1]</text>
</g>
<!-- 10&#45;&gt;12 -->
<g id="edge12" class="edge">
<title>10&#45;&gt;12</title>
<path fill="none" stroke="#000000" d="M728.356,-71.8314C748.5044,-62.2874 773.3752,-50.5065 794.7083,-40.4013"/>
<polygon fill="#000000" stroke="#000000" points="796.3807,-43.482 803.9198,-36.038 793.3841,-37.1558 796.3807,-43.482"/>
</g>
</g>
</svg>
