<?xml version="1.0" encoding="UTF-8" standalone="no"?>
<!DOCTYPE svg PUBLIC "-//W3C//DTD SVG 1.1//EN"
 "http://www.w3.org/Graphics/SVG/1.1/DTD/svg11.dtd">
<!-- Generated by graphviz version 2.40.1 (20161225.0304)
 -->
<!-- Title: G Pages: 1 -->
<svg width="614pt" height="332pt"
 viewBox="0.00 0.00 614.00 332.00" xmlns="http://www.w3.org/2000/svg" xmlns:xlink="http://www.w3.org/1999/xlink">
<g id="graph0" class="graph" transform="scale(1 1) rotate(0) translate(4 328)">
<title>G</title>
<polygon fill="#ffffff" stroke="transparent" points="-4,4 -4,-328 610,-328 610,4 -4,4"/>
<!-- 0 -->
<g id="node1" class="node">
<title>0</title>
<polygon fill="none" stroke="#000000" points="461.5,-324 349.5,-324 349.5,-288 461.5,-288 461.5,-324"/>
<text text-anchor="middle" x="405.5" y="-302.3" font-family="Times,serif" font-size="14.00" fill="#000000">fib_memo(5) = 5</text>
</g>
<!-- 1 -->
<g id="node2" class="node">
<title>1</title>
<polygon fill="none" stroke="#000000" points="377,-252 244,-252 244,-216 377,-216 377,-252"/>
<text text-anchor="middle" x="310.5" y="-230.3" font-family="Times,serif" font-size="14.00" fill="#000000">fib_memo(4, {}) = 3</text>
</g>
<!-- 0&#45;&gt;1 -->
<g id="edge1" class="edge">
<title>0&#45;&gt;1</title>
<path fill="none" stroke="#000000" d="M381.5275,-287.8314C369.7139,-278.8779 355.3028,-267.9558 342.5565,-258.2955"/>
<polygon fill="#000000" stroke="#000000" points="344.5486,-255.4137 334.4648,-252.1628 340.3205,-260.9925 344.5486,-255.4137"/>
</g>
<!-- 8 -->
<g id="node9" class="node">
<title>8</title>
<polygon fill="none" stroke="#000000" points="606,-252 395,-252 395,-216 606,-216 606,-252"/>
<text text-anchor="middle" x="500.5" y="-230.3" font-family="Times,serif" font-size="14.00" fill="#000000">fib_memo(3, {2: 1, 3: 2, 4: 3}) = 2</text>
</g>
<!-- 0&#45;&gt;8 -->
<g id="edge8" class="edge">
<title>0&#45;&gt;8</title>
<path fill="none" stroke="#000000" d="M429.4725,-287.8314C441.2861,-278.8779 455.6972,-267.9558 468.4435,-258.2955"/>
<polygon fill="#000000" stroke="#000000" points="470.6795,-260.9925 476.5352,-252.1628 466.4514,-255.4137 470.6795,-260.9925"/>
</g>
<!-- 2 -->
<g id="node3" class="node">
<title>2</title>
<polygon fill="none" stroke="#000000" points="289,-180 156,-180 156,-144 289,-144 289,-180"/>
<text text-anchor="middle" x="222.5" y="-158.3" font-family="Times,serif" font-size="14.00" fill="#000000">fib_memo(3, {}) = 2</text>
</g>
<!-- 1&#45;&gt;2 -->
<g id="edge2" class="edge">
<title>1&#45;&gt;2</title>
<path fill="none" stroke="#000000" d="M288.2939,-215.8314C277.455,-206.9632 264.2556,-196.1637 252.5322,-186.5718"/>
<polygon fill="#000000" stroke="#000000" points="254.655,-183.7864 244.699,-180.1628 250.2223,-189.2041 254.655,-183.7864"/>
</g>
<!-- 7 -->
<g id="node8" class="node">
<title>7</title>
<polygon fill="none" stroke="#000000" points="489.5,-180 307.5,-180 307.5,-144 489.5,-144 489.5,-180"/>
<text text-anchor="middle" x="398.5" y="-158.3" font-family="Times,serif" font-size="14.00" fill="#000000">fib_memo(2, {2: 1, 3: 2}) = 1</text>
</g>
<!-- 1&#45;&gt;7 -->
<g id="edge7" class="edge">
<title>1&#45;&gt;7</title>
<path fill="none" stroke="#000000" d="M332.7061,-215.8314C343.545,-206.9632 356.7444,-196.1637 368.4678,-186.5718"/>
<polygon fill="#000000" stroke="#000000" points="370.7777,-189.2041 376.301,-180.1628 366.345,-183.7864 370.7777,-189.2041"/>
</g>
<!-- 3 -->
<g id="node4" class="node">
<title>3</title>
<polygon fill="none" stroke="#000000" points="208,-108 75,-108 75,-72 208,-72 208,-108"/>
<text text-anchor="middle" x="141.5" y="-86.3" font-family="Times,serif" font-size="14.00" fill="#000000">fib_memo(2, {}) = 1</text>
</g>
<!-- 2&#45;&gt;3 -->
<g id="edge3" class="edge">
<title>2&#45;&gt;3</title>
<path fill="none" stroke="#000000" d="M202.0603,-143.8314C192.1795,-135.0485 180.1676,-124.3712 169.455,-114.8489"/>
<polygon fill="#000000" stroke="#000000" points="171.7326,-112.1906 161.9332,-108.1628 167.082,-117.4224 171.7326,-112.1906"/>
</g>
<!-- 6 -->
<g id="node7" class="node">
<title>6</title>
<polygon fill="none" stroke="#000000" points="380.5,-108 226.5,-108 226.5,-72 380.5,-72 380.5,-108"/>
<text text-anchor="middle" x="303.5" y="-86.3" font-family="Times,serif" font-size="14.00" fill="#000000">fib_memo(1, {2: 1}) = 1</text>
</g>
<!-- 2&#45;&gt;6 -->
<g id="edge6" class="edge">
<title>2&#45;&gt;6</title>
<path fill="none" stroke="#000000" d="M242.9397,-143.8314C252.8205,-135.0485 264.8324,-124.3712 275.545,-114.8489"/>
<polygon fill="#000000" stroke="#000000" points="277.918,-117.4224 283.0668,-108.1628 273.2674,-112.1906 277.918,-117.4224"/>
</g>
<!-- 4 -->
<g id="node5" class="node">
<title>4</title>
<polygon fill="none" stroke="#000000" points="133,-36 0,-36 0,0 133,0 133,-36"/>
<text text-anchor="middle" x="66.5" y="-14.3" font-family="Times,serif" font-size="14.00" fill="#000000">fib_memo(1, {}) = 1</text>
</g>
<!-- 3&#45;&gt;4 -->
<g id="edge4" class="edge">
<title>3&#45;&gt;4</title>
<path fill="none" stroke="#000000" d="M122.5743,-71.8314C113.5143,-63.1337 102.5191,-52.5783 92.6735,-43.1265"/>
<polygon fill="#000000" stroke="#000000" points="95.0574,-40.5633 85.4196,-36.1628 90.2096,-45.613 95.0574,-40.5633"/>
</g>
<!-- 5 -->
<g id="node6" class="node">
<title>5</title>
<polygon fill="none" stroke="#000000" points="284,-36 151,-36 151,0 284,0 284,-36"/>
<text text-anchor="middle" x="217.5" y="-14.3" font-family="Times,serif" font-size="14.00" fill="#000000">fib_memo(0, {}) = 0</text>
</g>
<!-- 3&#45;&gt;5 -->
<g id="edge5" class="edge">
<title>3&#45;&gt;5</title>
<path fill="none" stroke="#000000" d="M160.678,-71.8314C169.8588,-63.1337 181.0006,-52.5783 190.9776,-43.1265"/>
<polygon fill="#000000" stroke="#000000" points="193.4757,-45.5811 198.3281,-36.1628 188.6615,-40.4995 193.4757,-45.5811"/>
</g>
</g>
</svg>
