<?xml version="1.0" encoding="UTF-8" standalone="no"?>
<!DOCTYPE svg PUBLIC "-//W3C//DTD SVG 1.1//EN"
 "http://www.w3.org/Graphics/SVG/1.1/DTD/svg11.dtd">
<!-- Generated by graphviz version 2.40.1 (20161225.0304)
 -->
<!-- Title: G Pages: 1 -->
<svg width="504pt" height="116pt"
 viewBox="0.00 0.00 504.00 116.00" xmlns="http://www.w3.org/2000/svg" xmlns:xlink="http://www.w3.org/1999/xlink">
<g id="graph0" class="graph" transform="scale(1 1) rotate(0) translate(4 112)">
<title>G</title>
<polygon fill="#ffffff" stroke="transparent" points="-4,4 -4,-112 500,-112 500,4 -4,4"/>
<!-- 0 -->
<g id="node1" class="node">
<title>0</title>
<polygon fill="none" stroke="#000000" points="303.5,-108 191.5,-108 191.5,-72 303.5,-72 303.5,-108"/>
<text text-anchor="middle" x="247.5" y="-86.3" font-family="Times,serif" font-size="14.00" fill="#000000">fib_memo(6) = 8</text>
</g>
<!-- 1 -->
<g id="node2" class="node">
<title>1</title>
<polygon fill="none" stroke="#000000" points="239,-36 0,-36 0,0 239,0 239,-36"/>
<text text-anchor="middle" x="119.5" y="-14.3" font-family="Times,serif" font-size="14.00" fill="#000000">fib_memo(5, {2: 1, 3: 2, 4: 3, 5: 5}) = 5</text>
</g>
<!-- 0&#45;&gt;1 -->
<g id="edge1" class="edge">
<title>0&#45;&gt;1</title>
<path fill="none" stroke="#000000" d="M215.2002,-71.8314C198.6766,-62.5368 178.3814,-51.1208 160.7393,-41.1971"/>
<polygon fill="#000000" stroke="#000000" points="162.2212,-38.015 151.7895,-36.1628 158.7893,-44.116 162.2212,-38.015"/>
</g>
<!-- 2 -->
<g id="node3" class="node">
<title>2</title>
<polygon fill="none" stroke="#000000" points="496,-36 257,-36 257,0 496,0 496,-36"/>
<text text-anchor="middle" x="376.5" y="-14.3" font-family="Times,serif" font-size="14.00" fill="#000000">fib_memo(4, {2: 1, 3: 2, 4: 3, 5: 5}) = 3</text>
</g>
<!-- 0&#45;&gt;2 -->
<g id="edge2" class="edge">
<title>0&#45;&gt;2</title>
<path fill="none" stroke="#000000" d="M280.0521,-71.8314C296.7048,-62.5368 317.1585,-51.1208 334.9385,-41.1971"/>
<polygon fill="#000000" stroke="#000000" points="336.9321,-44.0927 343.9583,-36.1628 333.5205,-37.9803 336.9321,-44.0927"/>
</g>
</g>
</svg>
