<?xml version="1.0" encoding="UTF-8" standalone="no"?>
<!DOCTYPE svg PUBLIC "-//W3C//DTD SVG 1.1//EN"
 "http://www.w3.org/Graphics/SVG/1.1/DTD/svg11.dtd">
<!-- Generated by graphviz version 2.40.1 (20161225.0304)
 -->
<!-- Title: G Pages: 1 -->
<svg width="557pt" height="404pt"
 viewBox="0.00 0.00 557.00 404.00" xmlns="http://www.w3.org/2000/svg" xmlns:xlink="http://www.w3.org/1999/xlink">
<g id="graph0" class="graph" transform="scale(1 1) rotate(0) translate(4 400)">
<title>G</title>
<polygon fill="#ffffff" stroke="transparent" points="-4,4 -4,-400 553,-400 553,4 -4,4"/>
<!-- 0 -->
<g id="node1" class="node">
<title>0</title>
<ellipse fill="none" stroke="#000000" cx="342" cy="-378" rx="18" ry="18"/>
<text text-anchor="middle" x="342" y="-374.3" font-family="Times,serif" font-size="14.00" fill="#000000">8</text>
</g>
<!-- 1 -->
<g id="node2" class="node">
<title>1</title>
<ellipse fill="none" stroke="#000000" cx="288" cy="-306" rx="18" ry="18"/>
<text text-anchor="middle" x="288" y="-302.3" font-family="Times,serif" font-size="14.00" fill="#000000">5</text>
</g>
<!-- 0&#45;&gt;1 -->
<g id="edge15" class="edge">
<title>0&#45;&gt;1</title>
<path fill="none" stroke="#000000" d="M331.0723,-363.4297C323.6066,-353.4754 313.5632,-340.0842 305.0526,-328.7368"/>
<polygon fill="#000000" stroke="#000000" points="307.7115,-326.4486 298.9115,-320.5486 302.1115,-330.6486 307.7115,-326.4486"/>
</g>
<!-- 16 -->
<g id="node17" class="node">
<title>16</title>
<ellipse fill="none" stroke="#000000" cx="396" cy="-306" rx="18" ry="18"/>
<text text-anchor="middle" x="396" y="-302.3" font-family="Times,serif" font-size="14.00" fill="#000000">3</text>
</g>
<!-- 0&#45;&gt;16 -->
<g id="edge24" class="edge">
<title>0&#45;&gt;16</title>
<path fill="none" stroke="#000000" d="M352.9277,-363.4297C360.3934,-353.4754 370.4368,-340.0842 378.9474,-328.7368"/>
<polygon fill="#000000" stroke="#000000" points="381.8885,-330.6486 385.0885,-320.5486 376.2885,-326.4486 381.8885,-330.6486"/>
</g>
<!-- 2 -->
<g id="node3" class="node">
<title>2</title>
<ellipse fill="none" stroke="#000000" cx="180" cy="-234" rx="18" ry="18"/>
<text text-anchor="middle" x="180" y="-230.3" font-family="Times,serif" font-size="14.00" fill="#000000">3</text>
</g>
<!-- 1&#45;&gt;2 -->
<g id="edge9" class="edge">
<title>1&#45;&gt;2</title>
<path fill="none" stroke="#000000" d="M272.9831,-295.9887C255.03,-284.02 224.7675,-263.845 203.6604,-249.7736"/>
<polygon fill="#000000" stroke="#000000" points="205.4995,-246.7932 195.2376,-244.1584 201.6166,-252.6176 205.4995,-246.7932"/>
</g>
<!-- 11 -->
<g id="node12" class="node">
<title>11</title>
<ellipse fill="none" stroke="#000000" cx="288" cy="-234" rx="18" ry="18"/>
<text text-anchor="middle" x="288" y="-230.3" font-family="Times,serif" font-size="14.00" fill="#000000">2</text>
</g>
<!-- 1&#45;&gt;11 -->
<g id="edge14" class="edge">
<title>1&#45;&gt;11</title>
<path fill="none" stroke="#000000" d="M288,-287.8314C288,-280.131 288,-270.9743 288,-262.4166"/>
<polygon fill="#000000" stroke="#000000" points="291.5001,-262.4132 288,-252.4133 284.5001,-262.4133 291.5001,-262.4132"/>
</g>
<!-- 3 -->
<g id="node4" class="node">
<title>3</title>
<ellipse fill="none" stroke="#000000" cx="99" cy="-162" rx="18" ry="18"/>
<text text-anchor="middle" x="99" y="-158.3" font-family="Times,serif" font-size="14.00" fill="#000000">2</text>
</g>
<!-- 2&#45;&gt;3 -->
<g id="edge5" class="edge">
<title>2&#45;&gt;3</title>
<path fill="none" stroke="#000000" d="M166.2595,-221.7862C153.6157,-210.5473 134.6738,-193.7101 120.1103,-180.7647"/>
<polygon fill="#000000" stroke="#000000" points="122.337,-178.0612 112.5376,-174.0334 117.6865,-183.2931 122.337,-178.0612"/>
</g>
<!-- 8 -->
<g id="node9" class="node">
<title>8</title>
<ellipse fill="none" stroke="#000000" cx="180" cy="-162" rx="18" ry="18"/>
<text text-anchor="middle" x="180" y="-158.3" font-family="Times,serif" font-size="14.00" fill="#000000">1</text>
</g>
<!-- 2&#45;&gt;8 -->
<g id="edge8" class="edge">
<title>2&#45;&gt;8</title>
<path fill="none" stroke="#000000" d="M180,-215.8314C180,-208.131 180,-198.9743 180,-190.4166"/>
<polygon fill="#000000" stroke="#000000" points="183.5001,-190.4132 180,-180.4133 176.5001,-190.4133 183.5001,-190.4132"/>
</g>
<!-- 4 -->
<g id="node5" class="node">
<title>4</title>
<ellipse fill="none" stroke="#000000" cx="45" cy="-90" rx="18" ry="18"/>
<text text-anchor="middle" x="45" y="-86.3" font-family="Times,serif" font-size="14.00" fill="#000000">1</text>
</g>
<!-- 3&#45;&gt;4 -->
<g id="edge3" class="edge">
<title>3&#45;&gt;4</title>
<path fill="none" stroke="#000000" d="M88.0723,-147.4297C80.6066,-137.4754 70.5632,-124.0842 62.0526,-112.7368"/>
<polygon fill="#000000" stroke="#000000" points="64.7115,-110.4486 55.9115,-104.5486 59.1115,-114.6486 64.7115,-110.4486"/>
</g>
<!-- 7 -->
<g id="node8" class="node">
<title>7</title>
<ellipse fill="none" stroke="#000000" cx="99" cy="-90" rx="18" ry="18"/>
<text text-anchor="middle" x="99" y="-86.3" font-family="Times,serif" font-size="14.00" fill="#000000">1</text>
</g>
<!-- 3&#45;&gt;7 -->
<g id="edge4" class="edge">
<title>3&#45;&gt;7</title>
<path fill="none" stroke="#000000" d="M99,-143.8314C99,-136.131 99,-126.9743 99,-118.4166"/>
<polygon fill="#000000" stroke="#000000" points="102.5001,-118.4132 99,-108.4133 95.5001,-118.4133 102.5001,-118.4132"/>
</g>
<!-- 5 -->
<g id="node6" class="node">
<title>5</title>
<ellipse fill="none" stroke="#000000" cx="18" cy="-18" rx="18" ry="18"/>
<text text-anchor="middle" x="18" y="-14.3" font-family="Times,serif" font-size="14.00" fill="#000000">1</text>
</g>
<!-- 4&#45;&gt;5 -->
<g id="edge1" class="edge">
<title>4&#45;&gt;5</title>
<path fill="none" stroke="#000000" d="M38.6014,-72.937C35.407,-64.4186 31.471,-53.9227 27.8982,-44.3952"/>
<polygon fill="#000000" stroke="#000000" points="31.1411,-43.0749 24.3527,-34.9405 24.5868,-45.5328 31.1411,-43.0749"/>
</g>
<!-- 6 -->
<g id="node7" class="node">
<title>6</title>
<ellipse fill="none" stroke="#000000" cx="72" cy="-18" rx="18" ry="18"/>
<text text-anchor="middle" x="72" y="-14.3" font-family="Times,serif" font-size="14.00" fill="#000000">0</text>
</g>
<!-- 4&#45;&gt;6 -->
<g id="edge2" class="edge">
<title>4&#45;&gt;6</title>
<path fill="none" stroke="#000000" d="M51.3986,-72.937C54.593,-64.4186 58.529,-53.9227 62.1018,-44.3952"/>
<polygon fill="#000000" stroke="#000000" points="65.4132,-45.5328 65.6473,-34.9405 58.8589,-43.0749 65.4132,-45.5328"/>
</g>
<!-- 9 -->
<g id="node10" class="node">
<title>9</title>
<ellipse fill="none" stroke="#000000" cx="153" cy="-90" rx="18" ry="18"/>
<text text-anchor="middle" x="153" y="-86.3" font-family="Times,serif" font-size="14.00" fill="#000000">1</text>
</g>
<!-- 8&#45;&gt;9 -->
<g id="edge6" class="edge">
<title>8&#45;&gt;9</title>
<path fill="none" stroke="#000000" d="M173.6014,-144.937C170.407,-136.4186 166.471,-125.9227 162.8982,-116.3952"/>
<polygon fill="#000000" stroke="#000000" points="166.1411,-115.0749 159.3527,-106.9405 159.5868,-117.5328 166.1411,-115.0749"/>
</g>
<!-- 10 -->
<g id="node11" class="node">
<title>10</title>
<ellipse fill="none" stroke="#000000" cx="207" cy="-90" rx="18" ry="18"/>
<text text-anchor="middle" x="207" y="-86.3" font-family="Times,serif" font-size="14.00" fill="#000000">0</text>
</g>
<!-- 8&#45;&gt;10 -->
<g id="edge7" class="edge">
<title>8&#45;&gt;10</title>
<path fill="none" stroke="#000000" d="M186.3986,-144.937C189.593,-136.4186 193.529,-125.9227 197.1018,-116.3952"/>
<polygon fill="#000000" stroke="#000000" points="200.4132,-117.5328 200.6473,-106.9405 193.8589,-115.0749 200.4132,-117.5328"/>
</g>
<!-- 12 -->
<g id="node13" class="node">
<title>12</title>
<ellipse fill="none" stroke="#000000" cx="261" cy="-162" rx="18" ry="18"/>
<text text-anchor="middle" x="261" y="-158.3" font-family="Times,serif" font-size="14.00" fill="#000000">1</text>
</g>
<!-- 11&#45;&gt;12 -->
<g id="edge12" class="edge">
<title>11&#45;&gt;12</title>
<path fill="none" stroke="#000000" d="M281.6014,-216.937C278.407,-208.4186 274.471,-197.9227 270.8982,-188.3952"/>
<polygon fill="#000000" stroke="#000000" points="274.1411,-187.0749 267.3527,-178.9405 267.5868,-189.5328 274.1411,-187.0749"/>
</g>
<!-- 15 -->
<g id="node16" class="node">
<title>15</title>
<ellipse fill="none" stroke="#000000" cx="315" cy="-162" rx="18" ry="18"/>
<text text-anchor="middle" x="315" y="-158.3" font-family="Times,serif" font-size="14.00" fill="#000000">1</text>
</g>
<!-- 11&#45;&gt;15 -->
<g id="edge13" class="edge">
<title>11&#45;&gt;15</title>
<path fill="none" stroke="#000000" d="M294.3986,-216.937C297.593,-208.4186 301.529,-197.9227 305.1018,-188.3952"/>
<polygon fill="#000000" stroke="#000000" points="308.4132,-189.5328 308.6473,-178.9405 301.8589,-187.0749 308.4132,-189.5328"/>
</g>
<!-- 13 -->
<g id="node14" class="node">
<title>13</title>
<ellipse fill="none" stroke="#000000" cx="261" cy="-90" rx="18" ry="18"/>
<text text-anchor="middle" x="261" y="-86.3" font-family="Times,serif" font-size="14.00" fill="#000000">1</text>
</g>
<!-- 12&#45;&gt;13 -->
<g id="edge10" class="edge">
<title>12&#45;&gt;13</title>
<path fill="none" stroke="#000000" d="M261,-143.8314C261,-136.131 261,-126.9743 261,-118.4166"/>
<polygon fill="#000000" stroke="#000000" points="264.5001,-118.4132 261,-108.4133 257.5001,-118.4133 264.5001,-118.4132"/>
</g>
<!-- 14 -->
<g id="node15" class="node">
<title>14</title>
<ellipse fill="none" stroke="#000000" cx="315" cy="-90" rx="18" ry="18"/>
<text text-anchor="middle" x="315" y="-86.3" font-family="Times,serif" font-size="14.00" fill="#000000">0</text>
</g>
<!-- 12&#45;&gt;14 -->
<g id="edge11" class="edge">
<title>12&#45;&gt;14</title>
<path fill="none" stroke="#000000" d="M271.9277,-147.4297C279.3934,-137.4754 289.4368,-124.0842 297.9474,-112.7368"/>
<polygon fill="#000000" stroke="#000000" points="300.8885,-114.6486 304.0885,-104.5486 295.2885,-110.4486 300.8885,-114.6486"/>
</g>
<!-- 17 -->
<g id="node18" class="node">
<title>17</title>
<ellipse fill="none" stroke="#000000" cx="396" cy="-234" rx="18" ry="18"/>
<text text-anchor="middle" x="396" y="-230.3" font-family="Times,serif" font-size="14.00" fill="#000000">2</text>
</g>
<!-- 16&#45;&gt;17 -->
<g id="edge20" class="edge">
<title>16&#45;&gt;17</title>
<path fill="none" stroke="#000000" d="M396,-287.8314C396,-280.131 396,-270.9743 396,-262.4166"/>
<polygon fill="#000000" stroke="#000000" points="399.5001,-262.4132 396,-252.4133 392.5001,-262.4133 399.5001,-262.4132"/>
</g>
<!-- 22 -->
<g id="node23" class="node">
<title>22</title>
<ellipse fill="none" stroke="#000000" cx="477" cy="-234" rx="18" ry="18"/>
<text text-anchor="middle" x="477" y="-230.3" font-family="Times,serif" font-size="14.00" fill="#000000">1</text>
</g>
<!-- 16&#45;&gt;22 -->
<g id="edge23" class="edge">
<title>16&#45;&gt;22</title>
<path fill="none" stroke="#000000" d="M409.7405,-293.7862C422.3843,-282.5473 441.3262,-265.7101 455.8897,-252.7647"/>
<polygon fill="#000000" stroke="#000000" points="458.3135,-255.2931 463.4624,-246.0334 453.663,-250.0612 458.3135,-255.2931"/>
</g>
<!-- 18 -->
<g id="node19" class="node">
<title>18</title>
<ellipse fill="none" stroke="#000000" cx="369" cy="-162" rx="18" ry="18"/>
<text text-anchor="middle" x="369" y="-158.3" font-family="Times,serif" font-size="14.00" fill="#000000">1</text>
</g>
<!-- 17&#45;&gt;18 -->
<g id="edge18" class="edge">
<title>17&#45;&gt;18</title>
<path fill="none" stroke="#000000" d="M389.6014,-216.937C386.407,-208.4186 382.471,-197.9227 378.8982,-188.3952"/>
<polygon fill="#000000" stroke="#000000" points="382.1411,-187.0749 375.3527,-178.9405 375.5868,-189.5328 382.1411,-187.0749"/>
</g>
<!-- 21 -->
<g id="node22" class="node">
<title>21</title>
<ellipse fill="none" stroke="#000000" cx="423" cy="-162" rx="18" ry="18"/>
<text text-anchor="middle" x="423" y="-158.3" font-family="Times,serif" font-size="14.00" fill="#000000">1</text>
</g>
<!-- 17&#45;&gt;21 -->
<g id="edge19" class="edge">
<title>17&#45;&gt;21</title>
<path fill="none" stroke="#000000" d="M402.3986,-216.937C405.593,-208.4186 409.529,-197.9227 413.1018,-188.3952"/>
<polygon fill="#000000" stroke="#000000" points="416.4132,-189.5328 416.6473,-178.9405 409.8589,-187.0749 416.4132,-189.5328"/>
</g>
<!-- 19 -->
<g id="node20" class="node">
<title>19</title>
<ellipse fill="none" stroke="#000000" cx="369" cy="-90" rx="18" ry="18"/>
<text text-anchor="middle" x="369" y="-86.3" font-family="Times,serif" font-size="14.00" fill="#000000">1</text>
</g>
<!-- 18&#45;&gt;19 -->
<g id="edge16" class="edge">
<title>18&#45;&gt;19</title>
<path fill="none" stroke="#000000" d="M369,-143.8314C369,-136.131 369,-126.9743 369,-118.4166"/>
<polygon fill="#000000" stroke="#000000" points="372.5001,-118.4132 369,-108.4133 365.5001,-118.4133 372.5001,-118.4132"/>
</g>
<!-- 20 -->
<g id="node21" class="node">
<title>20</title>
<ellipse fill="none" stroke="#000000" cx="423" cy="-90" rx="18" ry="18"/>
<text text-anchor="middle" x="423" y="-86.3" font-family="Times,serif" font-size="14.00" fill="#000000">0</text>
</g>
<!-- 18&#45;&gt;20 -->
<g id="edge17" class="edge">
<title>18&#45;&gt;20</title>
<path fill="none" stroke="#000000" d="M379.9277,-147.4297C387.3934,-137.4754 397.4368,-124.0842 405.9474,-112.7368"/>
<polygon fill="#000000" stroke="#000000" points="408.8885,-114.6486 412.0885,-104.5486 403.2885,-110.4486 408.8885,-114.6486"/>
</g>
<!-- 23 -->
<g id="node24" class="node">
<title>23</title>
<ellipse fill="none" stroke="#000000" cx="477" cy="-162" rx="18" ry="18"/>
<text text-anchor="middle" x="477" y="-158.3" font-family="Times,serif" font-size="14.00" fill="#000000">1</text>
</g>
<!-- 22&#45;&gt;23 -->
<g id="edge21" class="edge">
<title>22&#45;&gt;23</title>
<path fill="none" stroke="#000000" d="M477,-215.8314C477,-208.131 477,-198.9743 477,-190.4166"/>
<polygon fill="#000000" stroke="#000000" points="480.5001,-190.4132 477,-180.4133 473.5001,-190.4133 480.5001,-190.4132"/>
</g>
<!-- 24 -->
<g id="node25" class="node">
<title>24</title>
<ellipse fill="none" stroke="#000000" cx="531" cy="-162" rx="18" ry="18"/>
<text text-anchor="middle" x="531" y="-158.3" font-family="Times,serif" font-size="14.00" fill="#000000">0</text>
</g>
<!-- 22&#45;&gt;24 -->
<g id="edge22" class="edge">
<title>22&#45;&gt;24</title>
<path fill="none" stroke="#000000" d="M487.9277,-219.4297C495.3934,-209.4754 505.4368,-196.0842 513.9474,-184.7368"/>
<polygon fill="#000000" stroke="#000000" points="516.8885,-186.6486 520.0885,-176.5486 511.2885,-182.4486 516.8885,-186.6486"/>
</g>
</g>
</svg>
